<?xml version="1.0" encoding="UTF-8"?>
<svg xmlns="http://www.w3.org/2000/svg" xmlns:xlink="http://www.w3.org/1999/xlink" width="261.8pt" height="365pt" viewBox="0 0 261.8 365" version="1.1">
<g id="surface1">
<path style=" stroke:none;fill-rule:nonzero;fill:rgb(94.499207%,35.699463%,15.299988%);fill-opacity:1;" d="M 2.714844 31.0625 C 17.082031 24.21875 32.375 9.738281 37.796875 0 C 51.644531 6.539063 178.960938 5.574219 193.679688 0 C 202.558594 12.976563 212.097656 20.234375 225.546875 24.628906 C 224.289063 37.078125 224.675781 41.488281 228.734375 51.472656 L 193.679688 51.472656 L 178.960938 35.035156 L 54.117188 35.035156 L 37.765625 49.429688 L 37.765625 115.636719 L 54.066406 131.417969 L 74.707031 132.277344 C 74.707031 107.695313 74.964844 102.996094 56.875 98.191406 C 62.898438 86.132813 64.109375 84.71875 65.691406 69.679688 C 81.175781 74.878906 241.15625 72.042969 248.113281 68.058594 C 247 83.726563 255.847656 113.492188 261.796875 124.597656 L 226.738281 124.597656 C 224.957031 112.410156 217.261719 102.996094 205.023438 100.703125 L 109.765625 100.703125 L 109.765625 132.277344 C 109.765625 132.277344 183.886719 134.292969 193.679688 130.9375 C 198.550781 143.589844 216.078125 162.148438 228.734375 167.285156 C 224.484375 193.109375 225.273438 237.273438 228.734375 264.058594 C 214.945313 270.90625 200.863281 284.964844 193.683594 299.140625 C 176.25 294.339844 109.765625 296.703125 109.765625 296.703125 L 109.765625 316.542969 C 113.195313 330.078125 120.46875 333.335938 133.226563 334.445313 C 133.226563 334.445313 122.980469 353.714844 122.5625 365 L 62.664063 365 C 62.402344 353.992188 51.988281 334.445313 51.988281 334.445313 C 63.503906 333.902344 72.957031 327.101563 74.707031 316.546875 L 74.707031 296.707031 C 74.707031 296.707031 53.6875 295.917969 37.792969 299.144531 C 32.988281 288.355469 15.453125 269.027344 2.714844 264.0625 C 5.65625 256.3125 4.292969 207.902344 0 197.699219 L 37.796875 197.699219 L 37.769531 246.941406 L 52.5 264.078125 L 74.710938 264.078125 L 74.710938 162.511719 C 74.710938 162.511719 55.269531 161.546875 37.800781 162.878906 C 32.78125 153.109375 17.78125 137.375 2.71875 129.945313 C 7.425781 112.0625 7.835938 47.945313 2.71875 31.066406 Z M 109.765625 162.5 L 109.765625 199.246094 C 109.765625 199.246094 156.46875 202.253906 170.769531 193.59375 C 168.207031 201.710938 169.015625 228.253906 170.769531 232.675781 C 152.695313 223.40625 109.765625 227.101563 109.765625 227.101563 L 109.765625 264.074219 L 178.957031 264.074219 L 193.695313 246.9375 L 193.695313 183.574219 L 176.617188 163.753906 C 166.464844 162.632813 130.171875 162.5 109.769531 162.5 L 109.765625 162.5 "/>
<path style=" stroke:none;fill-rule:nonzero;fill:rgb(94.499207%,35.699463%,15.299988%);fill-opacity:1;" d="M 167.550781 361.875 L 164.671875 361.875 L 164.671875 350.660156 L 164.585938 350.660156 L 160.527344 361.875 L 157.734375 361.875 L 153.789063 350.660156 L 153.699219 350.660156 L 153.699219 361.875 L 150.847656 361.875 L 150.847656 347.757813 L 155.835938 347.757813 L 159.097656 356.96875 L 159.167969 356.96875 L 162.589844 347.757813 L 167.546875 347.757813 L 167.546875 361.875 Z M 148.257813 350.296875 L 144.003906 350.296875 L 144.003906 361.875 L 141.128906 361.875 L 141.128906 350.296875 L 136.894531 350.296875 L 136.894531 347.757813 L 148.261719 347.757813 L 148.261719 350.296875 L 148.257813 350.296875 "/>
</g>
</svg>
